<?xml version="1.0" standalone="no"?>
<!DOCTYPE svg PUBLIC "-//W3C//DTD SVG 20010904//EN"
 "http://www.w3.org/TR/2001/REC-SVG-20010904/DTD/svg10.dtd">
<svg version="1.0" xmlns="http://www.w3.org/2000/svg"
 width="260.000000pt" height="260.000000pt" viewBox="0 0 260.000000 260.000000"
 preserveAspectRatio="xMidYMid meet">
<metadata>
Created by potrace 1.14, written by Peter Selinger 2001-2017
</metadata>
<g transform="translate(0.000000,260.000000) scale(0.100000,-0.100000)"
fill="#000000" stroke="none">
<path d="M1775 2592 c-62 -21 -116 -77 -134 -139 -5 -16 -9 -540 -9 -1162 l0
-1133 27 -51 c62 -119 238 -144 336 -49 64 63 61 4 60 1257 -1 1278 6 1168
-75 1238 -50 43 -140 60 -205 39z"/>
<path d="M654 2375 c-55 -28 -89 -71 -102 -130 -4 -22 -8 -458 -7 -970 1
-1043 -6 -959 76 -1028 32 -28 53 -37 97 -43 102 -13 177 21 224 101 l23 40 2
948 1 948 -27 52 c-52 99 -179 136 -287 82z"/>
<path d="M123 2049 c-48 -22 -62 -35 -93 -79 l-25 -35 -3 -600 c-2 -405 0
-616 8 -650 20 -93 93 -148 201 -149 87 -1 151 35 188 108 l25 49 0 607 0 607
-25 49 c-35 68 -97 106 -178 109 -41 1 -72 -4 -98 -16z"/>
<path d="M2316 2055 c-58 -20 -88 -46 -115 -99 l-25 -48 -1 -596 c-1 -665 -1
-656 66 -721 45 -45 92 -60 163 -56 75 4 121 31 166 95 l25 35 3 610 c2 438 0
622 -9 652 -12 45 -55 95 -102 120 -40 20 -123 24 -171 8z"/>
<path d="M1247 1926 c-60 -14 -114 -57 -138 -110 -17 -38 -19 -72 -19 -475 0
-302 4 -446 12 -473 22 -74 95 -128 181 -134 98 -6 194 53 217 136 6 20 10
215 10 468 0 368 -2 438 -15 470 -41 96 -138 143 -248 118z"/>
</g>
</svg>
